<svg id="kity_svg_6" xmlns="http://www.w3.org/2000/svg" xmlns:xlink="http://www.w3.org/1999/xlink" version="1.1" width="1112" height="486" style="background: rgb(251, 251, 251); visibility: visible;" viewBox="0 0 1112 486"><defs id="kity_defs_7"><linearGradient id="kity_linearGradient_17" x1="0" y1="0" x2="0" y2="1"><stop id="kity_stop_18" offset="0" stop-color="rgb(255, 255, 255)"></stop><stop id="kity_stop_19" offset="1" stop-color="rgb(204, 204, 204)"></stop></linearGradient><marker id="kity_marker_2" orient="auto" refX="6" refY="0" viewBox="-7 -7 14 14" markerWidth="7" markerHeight="7" markerUnits="userSpaceOnUse"><path id="kity_path_3" fill="rgb(115, 191, 118)" stroke="none" d="M6,0A6,6,0,1,1,-6,0A6,6,0,1,1,6,0"></path></marker></defs><g id="kity_g_8"><g id="minder1" text-rendering="geometricPrecision"><g id="minder_connect_group1"><path id="kity_path_31" fill="none" stroke="rgb(115, 191, 118)" stroke-width="1" d="M468.0000181645155,283.5000065714121A85.5,218,0,0,1,553.5000181645155,65.50000657141209"></path><path id="kity_path_73" fill="none" stroke="rgb(115, 191, 118)" stroke-width="1" d="M468.0000181645155,283.5000065714121A107.5,35,0,0,1,575.5000181645155,248.5000065714121"></path><path id="kity_path_127" fill="none" stroke="rgb(115, 191, 118)" stroke-width="1" d="M468.0000181645155,283.5000065714121A116.5,135,0,0,0,584.5000181645155,418.5000065714121"></path><path id="kity_path_149" fill="none" stroke="rgb(115, 191, 118)" stroke-width="1" d="M468.0000181645155,283.5000065714121A131.5,145,0,0,0,336.5000181645155,138.5000065714121"></path><path id="kity_path_171" fill="none" stroke="rgb(115, 191, 118)" stroke-width="1" d="M198.5000181645155,138.5000065714121C183.5000181645155,138.5000065714121,183.5000181645155,152.5000065714121,168.5000181645155,152.5000065714121L20.500018164515495,152.5000065714121"></path><path id="kity_path_173" fill="none" stroke="rgb(115, 191, 118)" stroke-width="1" d="M468.0000181645155,283.5000065714121A166.5,21,0,0,0,301.5000181645155,262.5000065714121"></path><path id="kity_path_198" fill="none" stroke="rgb(115, 191, 118)" stroke-width="1" d="M703.5000181645155,65.50000657141209C718.5000181645155,65.50000657141209,718.5000181645155,53.50000657141209,733.5000181645155,53.50000657141209L828.5000181645155,53.50000657141209"></path><path id="kity_path_199" fill="none" stroke="rgb(115, 191, 118)" stroke-width="1" d="M703.5000181645155,65.50000657141209C718.5000181645155,65.50000657141209,718.5000181645155,113.50000657141209,733.5000181645155,113.50000657141209L810.5000181645155,113.50000657141209"></path><path id="kity_path_201" fill="none" stroke="rgb(115, 191, 118)" stroke-width="1" d="M817.5000181645155,228.5000065714121C832.5000181645155,228.5000065714121,832.5000181645155,150.5000065714121,847.5000181645155,150.5000065714121L964.5000181645155,150.5000065714121"></path><path id="kity_path_202" fill="none" stroke="rgb(115, 191, 118)" stroke-width="1" d="M817.5000181645155,228.5000065714121C832.5000181645155,228.5000065714121,832.5000181645155,232.5000065714121,847.5000181645155,232.5000065714121L960.5000181645155,232.5000065714121"></path><path id="kity_path_203" fill="none" stroke="rgb(115, 191, 118)" stroke-width="1" d="M685.5000181645155,248.5000065714121C706.0000181645155,248.5000065714121,706.0000181645155,228.5000065714121,726.5000181645155,228.5000065714121L817.5000181645155,228.5000065714121"></path><path id="kity_path_204" fill="none" stroke="rgb(115, 191, 118)" stroke-width="1" d="M680.5000181645155,418.5000065714121C695.5000181645155,418.5000065714121,695.5000181645155,406.5000065714121,710.5000181645155,406.5000065714121L818.5000181645155,406.5000065714121"></path><path id="kity_path_206" fill="none" stroke="rgb(115, 191, 118)" stroke-width="1" d="M680.5000181645155,418.5000065714121C695.5000181645155,418.5000065714121,695.5000181645155,466.5000065714121,710.5000181645155,466.5000065714121L824.5000181645155,466.5000065714121"></path><path id="kity_path_226" fill="none" stroke="rgb(115, 191, 118)" stroke-width="1" d="M468.0000181645155,283.5000065714121A182.5,72,0,0,1,285.5000181645155,355.5000065714121"></path><path id="kity_path_246" fill="none" stroke="rgb(115, 191, 118)" stroke-width="1" d="M817.5000181645155,228.5000065714121C832.5000181645155,228.5000065714121,832.5000181645155,314.5000065714121,847.5000181645155,314.5000065714121L945.5000181645155,314.5000065714121"></path><path id="kity_path_259" fill="none" stroke="rgb(115, 191, 118)" stroke-width="1" d="M150.5000181645155,262.5000065714121C135.5000181645155,262.5000065714121,135.5000181645155,276.5000065714121,120.5000181645155,276.5000065714121L53.500018164515495,276.5000065714121"></path><path id="kity_path_261" fill="none" stroke="rgb(115, 191, 118)" stroke-width="1" d="M960.5000181645155,232.5000065714121C974.5000181645155,232.5000065714121,974.5000181645155,182.5000065714121,988.5000181645155,182.5000065714121L1092.5000181645155,182.5000065714121"></path><path id="kity_path_269" fill="none" stroke="rgb(115, 191, 118)" stroke-width="1" d="M960.5000181645155,232.5000065714121C975.5000181645155,232.5000065714121,975.5000181645155,254.5000065714121,990.5000181645155,254.5000065714121L1069.5000181645155,254.5000065714121"></path></g><g id="minder_node1"><path id="node_outline1" fill="rgb(115, 191, 118)" stroke="rgb(115, 191, 118)" d="M424.5000181645155,263.5000065714121h87a5,5,0,0,1,5,5v30a5,5,0,0,1,-5,5h-87a5,5,0,0,1,-5,-5v-30a5,5,0,0,1,5,-5z" stroke-width="3"></path><g id="node_text1" fill="white"><text id="kity_text_22" text-rendering="inherit" font-size="16" dy=".8em" y="273.1000064045191" x="443.5000181645155">scrapy</text></g></g><g id="kity_g_14" display="none"><path id="kity_path_15" fill="rgba(0, 153, 5, 0.5)" stroke="none" d="M662.5000181645155,318.5000065714121h83v20h-83z"></path><path id="kity_path_16" fill="none" stroke="rgb(0, 128, 4)" d="M662.5000181645155,318.5000065714121L745.5000181645155,318.5000065714121" stroke-width="1"></path></g><g id="minder_node2" opacity="1"><g id="node_expander1" style="cursor: pointer;"><path id="kity_path_36" fill="white" stroke="gray" d="M554.5000212937593,65.5000000745058A6,6,0,1,1,542.5000212937593,65.5000000745058A6,6,0,1,1,554.5000212937593,65.5000000745058"></path><path id="kity_path_37" fill="none" stroke="gray" d="M544.0000212937593,65.5000000745058L553.0000212937593,65.5000000745058"></path></g><path id="node_outline2" fill="rgb(238, 246, 238)" stroke="rgb(115, 191, 118)" d="M558.5000228434801,49.500000074505806h142a3,3,0,0,1,3,3v26a3,3,0,0,1,-3,3h-142a3,3,0,0,1,-3,-3v-26a3,3,0,0,1,3,-3z" stroke-width="1"></path><g id="node_text2" fill="black"><text id="kity_text_33" text-rendering="inherit" font-size="14" dy=".8em" y="56.40000010728836" x="600.5000228434801">Selector对象</text></g><g id="node_progress3"><path id="kity_path_67" fill="#FFED83" stroke="none" d="M595.0000224113464,66.00000008940697A9,9,0,1,1,577.0000224113464,66.00000008940697A9,9,0,1,1,595.0000224113464,66.00000008940697"></path><path id="kity_path_68" fill="#43BC00" stroke="none" d="M586.0000224113464,66.00000008940697L595.0000224113464,66.00000008940697A9,9,0,0,1,577.0000224113464,66.00000008940697A9,9,0,0,1,595.0000224113464,66.00000008940697L586.0000224113464,66.00000008940697z"></path><path id="kity_path_69" fill="#8E8E8E" stroke="none" d="M586.0000221133232,58.99999979138374c4.418,0,8,3.582,8,8h1c0,-5.523,-3.477,-10,-9,-10S577.0000221133232,61.47699979138375,577.0000221133232,66.99999979138374h1C578.0000221133232,62.581999791383744,581.5820221133232,58.99999979138374,586.0000221133232,58.99999979138374z"></path><path id="kity_path_71" fill="#EEE" stroke="none" d="M591.8120221133232,63.895999791383744l-6.75,6.75l-4.5,-4.5L582.2500221133232,64.45899979138375l2.812,2.803l5.062,-5.053L591.8120221133232,63.895999791383744z"></path><path id="kity_path_70" fill="url(#kity_linearGradient_17)" stroke="none" d="M586.0000221133232,55.99999979138374C580.4770221133232,55.99999979138374,576.0000221133232,60.47699979138375,576.0000221133232,65.99999979138374c0,5.523,4.477,10,10,10s10,-4.477,10,-10C596.0000221133232,60.47699979138375,591.5230221133232,55.99999979138374,586.0000221133232,55.99999979138374zM586.0000221133232,73.99999979138374c-4.418,0,-8,-3.582,-8,-8s3.582,-8,8,-8s8,3.582,8,8S590.4180221133232,73.99999979138374,586.0000221133232,73.99999979138374z"></path></g></g><g id="minder_node5" opacity="1"><g id="node_expander4" style="cursor: pointer;"><path id="kity_path_78" fill="white" stroke="gray" d="M576.5000219494104,248.5000055283308A6,6,0,1,1,564.5000219494104,248.5000055283308A6,6,0,1,1,576.5000219494104,248.5000055283308"></path><path id="kity_path_79" fill="none" stroke="gray" d="M566.0000219494104,248.5000055283308L575.0000219494104,248.5000055283308"></path></g><path id="node_outline5" fill="rgb(238, 246, 238)" stroke="rgb(115, 191, 118)" d="M580.5000234991312,232.5000055283308h102a3,3,0,0,1,3,3v26a3,3,0,0,1,-3,3h-102a3,3,0,0,1,-3,-3v-26a3,3,0,0,1,3,-3z" stroke-width="1"></path><g id="node_text5" fill="black"><text id="kity_text_75" text-rendering="inherit" font-size="14" dy=".8em" y="239.40000556111335" x="622.5000234991312">中间件</text></g><g id="node_progress12"><path id="kity_path_240" fill="#FFED83" stroke="none" d="M617.0000230669975,249.00000554323196A9,9,0,1,1,599.0000230669975,249.00000554323196A9,9,0,1,1,617.0000230669975,249.00000554323196"></path><path id="kity_path_241" fill="#43BC00" stroke="none" d="M608.0000230669975,249.00000554323196L617.0000230669975,249.00000554323196A9,9,0,0,0,604.5558721757117,240.6850897506304A9,9,0,0,0,601.6360620363185,255.3639665739109L608.0000230669975,249.00000554323196z"></path><path id="kity_path_242" fill="#8E8E8E" stroke="none" d="M608.0000227689743,242.00000524520874c4.418,0,8,3.582,8,8h1c0,-5.523,-3.477,-10,-9,-10S599.0000227689743,244.47700524520874,599.0000227689743,250.00000524520874h1C600.0000227689743,245.58200524520873,603.5820227689743,242.00000524520874,608.0000227689743,242.00000524520874z"></path><path id="kity_path_244" fill="#EEE" stroke="none" d="M623.8120230669975,256.896005543232l-6.75,6.75l-4.5,-4.5L614.2500230669975,257.45900554323197l2.812,2.803l5.062,-5.053L623.8120230669975,256.896005543232z" display="none"></path><path id="kity_path_243" fill="url(#kity_linearGradient_17)" stroke="none" d="M608.0000227689743,239.00000524520874C602.4770227689743,239.00000524520874,598.0000227689743,243.47700524520874,598.0000227689743,249.00000524520874c0,5.523,4.477,10,10,10s10,-4.477,10,-10C618.0000227689743,243.47700524520874,613.5230227689743,239.00000524520874,608.0000227689743,239.00000524520874zM608.0000227689743,257.00000524520874c-4.418,0,-8,-3.582,-8,-8s3.582,-8,8,-8s8,3.582,8,8S612.4180227689743,257.00000524520874,608.0000227689743,257.00000524520874z"></path></g></g><g id="kity_g_12" display="none"><path id="kity_path_13" fill="none" stroke="rgb(66, 112, 68)" d="M424.5000181645155,263.5000065714121h87a5,5,0,0,1,5,5v30a5,5,0,0,1,-5,5h-87a5,5,0,0,1,-5,-5v-30a5,5,0,0,1,5,-5z" stroke-width="5"></path></g><g id="minder_node9" opacity="1"><g id="node_expander8" style="cursor: pointer;"><path id="kity_path_132" fill="white" stroke="gray" d="M585.5000222176313,418.5000105947256A6,6,0,1,1,573.5000222176313,418.5000105947256A6,6,0,1,1,585.5000222176313,418.5000105947256"></path><path id="kity_path_133" fill="none" stroke="gray" d="M575.0000222176313,418.5000105947256L584.0000222176313,418.5000105947256"></path></g><path id="node_outline9" fill="rgb(238, 246, 238)" stroke="rgb(115, 191, 118)" d="M589.5000237673521,402.5000105947256h88a3,3,0,0,1,3,3v26a3,3,0,0,1,-3,3h-88a3,3,0,0,1,-3,-3v-26a3,3,0,0,1,3,-3z" stroke-width="1"></path><g id="node_text9" fill="black"><text id="kity_text_129" text-rendering="inherit" font-size="14" dy=".8em" y="409.40001062750815" x="631.5000237673521">存储</text></g><g id="node_progress10"><path id="kity_path_220" fill="#FFED83" stroke="none" d="M626.0000233352184,419.00001060962677A9,9,0,1,1,608.0000233352184,419.00001060962677A9,9,0,1,1,626.0000233352184,419.00001060962677"></path><path id="kity_path_221" fill="#43BC00" stroke="none" d="M617.0000233352184,419.00001060962677L626.0000233352184,419.00001060962677A9,9,0,0,0,617.0000233352184,410.00001060962677A9,9,0,0,0,608.0000233352184,419.00001060962677L617.0000233352184,419.00001060962677z"></path><path id="kity_path_222" fill="#8E8E8E" stroke="none" d="M617.0000230371952,412.00001031160355c4.418,0,8,3.582,8,8h1c0,-5.523,-3.477,-10,-9,-10S608.0000230371952,414.4770103116035,608.0000230371952,420.00001031160355h1C609.0000230371952,415.58201031160354,612.5820230371952,412.00001031160355,617.0000230371952,412.00001031160355z"></path><path id="kity_path_224" fill="#EEE" stroke="none" d="M632.8120233352184,426.8960106096268l-6.75,6.75l-4.5,-4.5L623.2500233352184,427.4590106096268l2.812,2.803l5.062,-5.053L632.8120233352184,426.8960106096268z" display="none"></path><path id="kity_path_223" fill="url(#kity_linearGradient_17)" stroke="none" d="M617.0000230371952,409.00001031160355C611.4770230371952,409.00001031160355,607.0000230371952,413.4770103116035,607.0000230371952,419.00001031160355c0,5.523,4.477,10,10,10s10,-4.477,10,-10C627.0000230371952,413.4770103116035,622.5230230371952,409.00001031160355,617.0000230371952,409.00001031160355zM617.0000230371952,427.00001031160355c-4.418,0,-8,-3.582,-8,-8s3.582,-8,8,-8s8,3.582,8,8S621.4180230371952,427.00001031160355,617.0000230371952,427.00001031160355z"></path></g></g><g id="minder_node11" opacity="1"><g id="node_expander10" style="cursor: pointer;"><path id="kity_path_154" fill="white" stroke="gray" d="M347.5000151246786,138.50000225007534A6,6,0,1,1,335.5000151246786,138.50000225007534A6,6,0,1,1,347.5000151246786,138.50000225007534"></path><path id="kity_path_155" fill="none" stroke="gray" d="M337.0000151246786,138.50000225007534L346.0000151246786,138.50000225007534"></path></g><path id="node_outline11" fill="rgb(238, 246, 238)" stroke="rgb(115, 191, 118)" d="M201.50001220405102,122.50000225007534h130a3,3,0,0,1,3,3v26a3,3,0,0,1,-3,3h-130a3,3,0,0,1,-3,-3v-26a3,3,0,0,1,3,-3z" stroke-width="1"></path><g id="node_text11" fill="black"><text id="kity_text_151" text-rendering="inherit" font-size="14" dy=".8em" y="129.40000228285788" x="243.50001220405102">分布式爬取</text></g><g id="node_progress7"><path id="kity_path_158" fill="#FFED83" stroke="none" d="M238.00001177191734,139.0000022649765A9,9,0,1,1,220.00001177191734,139.0000022649765A9,9,0,1,1,238.00001177191734,139.0000022649765"></path><path id="kity_path_159" fill="#43BC00" stroke="none" d="M229.00001177191734,139.0000022649765"></path><path id="kity_path_160" fill="#8E8E8E" stroke="none" d="M229.00001147389412,132.00000196695328c4.418,0,8,3.582,8,8h1c0,-5.523,-3.477,-10,-9,-10S220.00001147389412,134.47700196695328,220.00001147389412,140.00000196695328h1C221.00001147389412,135.58200196695327,224.5820114738941,132.00000196695328,229.00001147389412,132.00000196695328z"></path><path id="kity_path_162" fill="#EEE" stroke="none" d="M244.81201177191735,146.8960022649765l-6.75,6.75l-4.5,-4.5L235.25001177191734,147.4590022649765l2.812,2.803l5.062,-5.053L244.81201177191735,146.8960022649765z" display="none"></path><path id="kity_path_161" fill="url(#kity_linearGradient_17)" stroke="none" d="M229.00001147389412,129.00000196695328C223.47701147389412,129.00000196695328,219.00001147389412,133.47700196695328,219.00001147389412,139.00000196695328c0,5.523,4.477,10,10,10s10,-4.477,10,-10C239.00001147389412,133.47700196695328,234.52301147389412,129.00000196695328,229.00001147389412,129.00000196695328zM229.00001147389412,147.00000196695328c-4.418,0,-8,-3.582,-8,-8s3.582,-8,8,-8s8,3.582,8,8S233.41801147389413,147.00000196695328,229.00001147389412,147.00000196695328z"></path></g></g><g id="minder_node12"><g id="node_expander11" style="cursor: pointer;" display="none"><path id="kity_path_169" fill="white" stroke="gray" d="M170.50000984966755,138.50000225007534A6,6,0,1,1,158.50000984966755,138.50000225007534A6,6,0,1,1,170.50000984966755,138.50000225007534"></path><path id="kity_path_170" fill="none" stroke="gray"></path></g><path id="node_outline12" fill="none" stroke="none" d="M25.50000585615635,127.50000225007534h128a5,5,0,0,1,5,5v12a5,5,0,0,1,-5,5h-128a5,5,0,0,1,-5,-5v-12a5,5,0,0,1,5,-5z" stroke-width="3"></path><g id="node_text12" fill="black"><text id="kity_text_166" text-rendering="inherit" font-size="12" dy=".8em" y="130.70000232358774" x="30.50000585615635">scrapy-redis源码分析</text></g></g><g id="minder_node13" opacity="1"><g id="node_expander12" style="cursor: pointer;"><path id="kity_path_178" fill="white" stroke="gray" d="M312.5000140815973,262.5000059455633A6,6,0,1,1,300.5000140815973,262.5000059455633A6,6,0,1,1,312.5000140815973,262.5000059455633"></path><path id="kity_path_179" fill="none" stroke="gray" d="M302.0000140815973,262.5000059455633L311.0000140815973,262.5000059455633"></path></g><path id="node_outline13" fill="rgb(238, 246, 238)" stroke="rgb(115, 191, 118)" d="M153.50001077353954,246.50000594556332h143a3,3,0,0,1,3,3v26a3,3,0,0,1,-3,3h-143a3,3,0,0,1,-3,-3v-26a3,3,0,0,1,3,-3z" stroke-width="1"></path><g id="node_text13" fill="black"><text id="kity_text_175" text-rendering="inherit" font-size="14" dy=".8em" y="253.40000597834586" x="195.50001077353954">爬取动态页面</text></g><g id="node_progress8"><path id="kity_path_181" fill="#FFED83" stroke="none" d="M190.00001034140587,263.0000059604645A9,9,0,1,1,172.00001034140587,263.0000059604645A9,9,0,1,1,190.00001034140587,263.0000059604645"></path><path id="kity_path_182" fill="#43BC00" stroke="none" d="M181.00001034140587,263.0000059604645"></path><path id="kity_path_183" fill="#8E8E8E" stroke="none" d="M181.00001004338264,256.00000566244125c4.418,0,8,3.582,8,8h1c0,-5.523,-3.477,-10,-9,-10S172.00001004338264,258.47700566244123,172.00001004338264,264.00000566244125h1C173.00001004338264,259.58200566244125,176.58201004338264,256.00000566244125,181.00001004338264,256.00000566244125z"></path><path id="kity_path_185" fill="#EEE" stroke="none" d="M196.81201034140588,270.8960059604645l-6.75,6.75l-4.5,-4.5L187.25001034140587,271.4590059604645l2.812,2.803l5.062,-5.053L196.81201034140588,270.8960059604645z" display="none"></path><path id="kity_path_184" fill="url(#kity_linearGradient_17)" stroke="none" d="M181.00001004338264,253.00000566244125C175.47701004338265,253.00000566244125,171.00001004338264,257.47700566244123,171.00001004338264,263.00000566244125c0,5.523,4.477,10,10,10s10,-4.477,10,-10C191.00001004338264,257.47700566244123,186.52301004338264,253.00000566244125,181.00001004338264,253.00000566244125zM181.00001004338264,271.00000566244125c-4.418,0,-8,-3.582,-8,-8s3.582,-8,8,-8s8,3.582,8,8S185.41801004338265,271.00000566244125,181.00001004338264,271.00000566244125z"></path></g></g><g id="minder_node3"><g id="node_expander2" style="cursor: pointer;" display="none"><path id="kity_path_44" fill="white" stroke="gray" d="M743.5000269263983,35.499999180436134A6,6,0,1,1,731.5000269263983,35.499999180436134A6,6,0,1,1,743.5000269263983,35.499999180436134"></path><path id="kity_path_45" fill="none" stroke="gray"></path></g><path id="node_outline3" fill="none" stroke="none" d="M748.5000281482935,20.499999180436134h75a5,5,0,0,1,5,5v20a5,5,0,0,1,-5,5h-75a5,5,0,0,1,-5,-5v-20a5,5,0,0,1,5,-5z" stroke-width="3"></path><g id="node_text3" fill="black"><text id="kity_text_41" text-rendering="inherit" font-size="12" dy=".8em" y="27.699999253948533" x="778.5000281482935">XPATH</text></g><g id="node_progress1"><path id="kity_path_55" fill="#FFED83" stroke="none" d="M773.0000277161598,35.999999195337296A9,9,0,1,1,755.0000277161598,35.999999195337296A9,9,0,1,1,773.0000277161598,35.999999195337296"></path><path id="kity_path_56" fill="#43BC00" stroke="none" d="M764.0000277161598,35.999999195337296L773.0000277161598,35.999999195337296A9,9,0,0,1,755.0000277161598,35.999999195337296A9,9,0,0,1,773.0000277161598,35.999999195337296L764.0000277161598,35.999999195337296z"></path><path id="kity_path_57" fill="#8E8E8E" stroke="none" d="M764.0000274181366,28.99999889731407c4.418,0,8,3.582,8,8h1c0,-5.523,-3.477,-10,-9,-10S755.0000274181366,31.476998897314072,755.0000274181366,36.99999889731407h1C756.0000274181366,32.58199889731407,759.5820274181366,28.99999889731407,764.0000274181366,28.99999889731407z"></path><path id="kity_path_59" fill="#EEE" stroke="none" d="M769.8120274181366,33.89599889731407l-6.75,6.75l-4.5,-4.5L760.2500274181366,34.458998897314075l2.812,2.803l5.062,-5.053L769.8120274181366,33.89599889731407z"></path><path id="kity_path_58" fill="url(#kity_linearGradient_17)" stroke="none" d="M764.0000274181366,25.99999889731407C758.4770274181366,25.99999889731407,754.0000274181366,30.476998897314072,754.0000274181366,35.99999889731407c0,5.523,4.477,10,10,10s10,-4.477,10,-10C774.0000274181366,30.476998897314072,769.5230274181366,25.99999889731407,764.0000274181366,25.99999889731407zM764.0000274181366,43.99999889731407c-4.418,0,-8,-3.582,-8,-8s3.582,-8,8,-8s8,3.582,8,8S768.4180274181366,43.99999889731407,764.0000274181366,43.99999889731407z"></path></g></g><g id="minder_node4"><g id="node_expander3" style="cursor: pointer;" display="none"><path id="kity_path_52" fill="white" stroke="gray" d="M743.5000269263983,95.50000096857548A6,6,0,1,1,731.5000269263983,95.50000096857548A6,6,0,1,1,743.5000269263983,95.50000096857548"></path><path id="kity_path_53" fill="none" stroke="gray"></path></g><path id="node_outline4" fill="none" stroke="none" d="M748.5000281482935,80.50000096857548h57a5,5,0,0,1,5,5v20a5,5,0,0,1,-5,5h-57a5,5,0,0,1,-5,-5v-20a5,5,0,0,1,5,-5z" stroke-width="3"></path><g id="node_text4" fill="black"><text id="kity_text_49" text-rendering="inherit" font-size="12" dy=".8em" y="87.70000104208788" x="778.5000281482935">CSS</text></g><g id="node_progress2"><path id="kity_path_61" fill="#FFED83" stroke="none" d="M773.0000277161598,96.00000098347664A9,9,0,1,1,755.0000277161598,96.00000098347664A9,9,0,1,1,773.0000277161598,96.00000098347664"></path><path id="kity_path_62" fill="#43BC00" stroke="none" d="M764.0000277161598,96.00000098347664L773.0000277161598,96.00000098347664A9,9,0,0,1,755.0000277161598,96.00000098347664A9,9,0,0,1,773.0000277161598,96.00000098347664L764.0000277161598,96.00000098347664z"></path><path id="kity_path_63" fill="#8E8E8E" stroke="none" d="M764.0000274181366,89.00000068545341c4.418,0,8,3.582,8,8h1c0,-5.523,-3.477,-10,-9,-10S755.0000274181366,91.47700068545342,755.0000274181366,97.00000068545341h1C756.0000274181366,92.58200068545341,759.5820274181366,89.00000068545341,764.0000274181366,89.00000068545341z"></path><path id="kity_path_65" fill="#EEE" stroke="none" d="M769.8120274181366,93.89600068545342l-6.75,6.75l-4.5,-4.5L760.2500274181366,94.45900068545342l2.812,2.803l5.062,-5.053L769.8120274181366,93.89600068545342z"></path><path id="kity_path_64" fill="url(#kity_linearGradient_17)" stroke="none" d="M764.0000274181366,86.00000068545341C758.4770274181366,86.00000068545341,754.0000274181366,90.47700068545342,754.0000274181366,96.00000068545341c0,5.523,4.477,10,10,10s10,-4.477,10,-10C774.0000274181366,90.47700068545342,769.5230274181366,86.00000068545341,764.0000274181366,86.00000068545341zM764.0000274181366,104.00000068545341c-4.418,0,-8,-3.582,-8,-8s3.582,-8,8,-8s8,3.582,8,8S768.4180274181366,104.00000068545341,764.0000274181366,104.00000068545341z"></path></g></g><g id="minder_node7"><g id="node_expander6" style="cursor: pointer;" display="none"><path id="kity_path_98" fill="white" stroke="gray" d="M857.500030323863,132.5000020712614A6,6,0,1,1,845.500030323863,132.5000020712614A6,6,0,1,1,857.500030323863,132.5000020712614"></path><path id="kity_path_99" fill="none" stroke="gray"></path></g><path id="node_outline7" fill="none" stroke="none" d="M862.5000315457582,117.5000020712614h97a5,5,0,0,1,5,5v20a5,5,0,0,1,-5,5h-97a5,5,0,0,1,-5,-5v-20a5,5,0,0,1,5,-5z" stroke-width="3"></path><g id="node_text7" fill="black"><text id="kity_text_95" text-rendering="inherit" font-size="12" dy=".8em" y="124.7000021447738" x="892.5000315457582">Use-Agent</text></g><g id="node_progress4"><path id="kity_path_105" fill="#FFED83" stroke="none" d="M887.0000311136246,133.00000208616257A9,9,0,1,1,869.0000311136246,133.00000208616257A9,9,0,1,1,887.0000311136246,133.00000208616257"></path><path id="kity_path_106" fill="#43BC00" stroke="none" d="M878.0000311136246,133.00000208616257L887.0000311136246,133.00000208616257A9,9,0,0,1,869.0000311136246,133.00000208616257A9,9,0,0,1,887.0000311136246,133.00000208616257L878.0000311136246,133.00000208616257z"></path><path id="kity_path_107" fill="#8E8E8E" stroke="none" d="M878.0000308156013,126.00000178813934c4.418,0,8,3.582,8,8h1c0,-5.523,-3.477,-10,-9,-10S869.0000308156013,128.47700178813935,869.0000308156013,134.00000178813934h1C870.0000308156013,129.58200178813934,873.5820308156013,126.00000178813934,878.0000308156013,126.00000178813934z"></path><path id="kity_path_109" fill="#EEE" stroke="none" d="M883.8120308156014,130.89600178813933l-6.75,6.75l-4.5,-4.5L874.2500308156013,131.45900178813935l2.812,2.803l5.062,-5.053L883.8120308156014,130.89600178813933z"></path><path id="kity_path_108" fill="url(#kity_linearGradient_17)" stroke="none" d="M878.0000308156013,123.00000178813934C872.4770308156013,123.00000178813934,868.0000308156013,127.47700178813935,868.0000308156013,133.00000178813934c0,5.523,4.477,10,10,10s10,-4.477,10,-10C888.0000308156013,127.47700178813935,883.5230308156014,123.00000178813934,878.0000308156013,123.00000178813934zM878.0000308156013,141.00000178813934c-4.418,0,-8,-3.582,-8,-8s3.582,-8,8,-8s8,3.582,8,8S882.4180308156014,141.00000178813934,878.0000308156013,141.00000178813934z"></path></g></g><g id="minder_node8"><g id="node_expander7" style="cursor: pointer;"><path id="kity_path_116" fill="white" stroke="gray" d="M857.500030323863,214.50000451505184A6,6,0,1,1,845.500030323863,214.50000451505184A6,6,0,1,1,857.500030323863,214.50000451505184"></path><path id="kity_path_117" fill="none" stroke="gray" d="M847.000030323863,214.50000451505184L856.000030323863,214.50000451505184"></path></g><path id="node_outline8" fill="none" stroke="none" d="M862.5000315457582,199.50000451505184h93a5,5,0,0,1,5,5v20a5,5,0,0,1,-5,5h-93a5,5,0,0,1,-5,-5v-20a5,5,0,0,1,5,-5z" stroke-width="3"></path><g id="node_text8" fill="black"><text id="kity_text_113" text-rendering="inherit" font-size="12" dy=".8em" y="206.70000458856424" x="892.5000315457582">HttpProxy</text></g><g id="node_progress5"><path id="kity_path_121" fill="#FFED83" stroke="none" d="M887.0000311136246,215.000004529953A9,9,0,1,1,869.0000311136246,215.000004529953A9,9,0,1,1,887.0000311136246,215.000004529953"></path><path id="kity_path_122" fill="#43BC00" stroke="none" d="M878.0000311136246,215.000004529953L887.0000311136246,215.000004529953A9,9,0,0,1,869.0000311136246,215.000004529953A9,9,0,0,1,887.0000311136246,215.000004529953L878.0000311136246,215.000004529953z"></path><path id="kity_path_123" fill="#8E8E8E" stroke="none" d="M878.0000308156013,208.00000423192978c4.418,0,8,3.582,8,8h1c0,-5.523,-3.477,-10,-9,-10S869.0000308156013,210.47700423192978,869.0000308156013,216.00000423192978h1C870.0000308156013,211.58200423192977,873.5820308156013,208.00000423192978,878.0000308156013,208.00000423192978z"></path><path id="kity_path_125" fill="#EEE" stroke="none" d="M883.8120308156014,212.89600423192977l-6.75,6.75l-4.5,-4.5L874.2500308156013,213.45900423192978l2.812,2.803l5.062,-5.053L883.8120308156014,212.89600423192977z"></path><path id="kity_path_124" fill="url(#kity_linearGradient_17)" stroke="none" d="M878.0000308156013,205.00000423192978C872.4770308156013,205.00000423192978,868.0000308156013,209.47700423192978,868.0000308156013,215.00000423192978c0,5.523,4.477,10,10,10s10,-4.477,10,-10C888.0000308156013,209.47700423192978,883.5230308156014,205.00000423192978,878.0000308156013,205.00000423192978zM878.0000308156013,223.00000423192978c-4.418,0,-8,-3.582,-8,-8s3.582,-8,8,-8s8,3.582,8,8S882.4180308156014,223.00000423192978,878.0000308156013,223.00000423192978z"></path></g></g><g id="minder_node6" opacity="1"><g id="node_expander5" style="cursor: pointer;"><path id="kity_path_88" fill="white" stroke="gray" d="M736.500026717782,214.50000451505184A6,6,0,1,1,724.500026717782,214.50000451505184A6,6,0,1,1,736.500026717782,214.50000451505184"></path><path id="kity_path_89" fill="none" stroke="gray" d="M726.000026717782,214.50000451505184L735.000026717782,214.50000451505184"></path></g><path id="node_outline6" fill="none" stroke="none" d="M741.5000271946192,203.50000451505184h71a5,5,0,0,1,5,5v12a5,5,0,0,1,-5,5h-71a5,5,0,0,1,-5,-5v-12a5,5,0,0,1,5,-5z" stroke-width="3"></path><g id="node_text6" fill="black"><text id="kity_text_85" text-rendering="inherit" font-size="12" dy=".8em" y="206.70000458856424" x="746.5000271946192">下载中间件</text></g></g><g id="minder_node10"><g id="node_expander9" style="cursor: pointer;" display="none"><path id="kity_path_140" fill="white" stroke="gray" d="M720.5000262409449,388.50000970065594A6,6,0,1,1,708.5000262409449,388.50000970065594A6,6,0,1,1,720.5000262409449,388.50000970065594"></path><path id="kity_path_141" fill="none" stroke="gray"></path></g><path id="node_outline10" fill="none" stroke="none" d="M725.5000274628401,373.50000970065594h88a5,5,0,0,1,5,5v20a5,5,0,0,1,-5,5h-88a5,5,0,0,1,-5,-5v-20a5,5,0,0,1,5,-5z" stroke-width="3"></path><g id="node_text10" fill="black"><text id="kity_text_137" text-rendering="inherit" font-size="12" dy=".8em" y="380.70000977416834" x="755.5000274628401">　MySQL</text></g><g id="node_progress6"><path id="kity_path_143" fill="#FFED83" stroke="none" d="M750.0000270307064,389.0000097155571A9,9,0,1,1,732.0000270307064,389.0000097155571A9,9,0,1,1,750.0000270307064,389.0000097155571"></path><path id="kity_path_144" fill="#43BC00" stroke="none" d="M741.0000270307064,389.0000097155571L750.0000270307064,389.0000097155571A9,9,0,0,1,732.0000270307064,389.0000097155571A9,9,0,0,1,750.0000270307064,389.0000097155571L741.0000270307064,389.0000097155571z"></path><path id="kity_path_145" fill="#8E8E8E" stroke="none" d="M741.0000267326832,382.0000094175339c4.418,0,8,3.582,8,8h1c0,-5.523,-3.477,-10,-9,-10S732.0000267326832,384.47700941753385,732.0000267326832,390.0000094175339h1C733.0000267326832,385.58200941753387,736.5820267326832,382.0000094175339,741.0000267326832,382.0000094175339z"></path><path id="kity_path_147" fill="#EEE" stroke="none" d="M746.8120267326832,386.8960094175339l-6.75,6.75l-4.5,-4.5L737.2500267326832,387.4590094175339l2.812,2.803l5.062,-5.053L746.8120267326832,386.8960094175339z"></path><path id="kity_path_146" fill="url(#kity_linearGradient_17)" stroke="none" d="M741.0000267326832,379.0000094175339C735.4770267326832,379.0000094175339,731.0000267326832,383.47700941753385,731.0000267326832,389.0000094175339c0,5.523,4.477,10,10,10s10,-4.477,10,-10C751.0000267326832,383.47700941753385,746.5230267326832,379.0000094175339,741.0000267326832,379.0000094175339zM741.0000267326832,397.0000094175339c-4.418,0,-8,-3.582,-8,-8s3.582,-8,8,-8s8,3.582,8,8S745.4180267326832,397.0000094175339,741.0000267326832,397.0000094175339z"></path></g></g><g id="minder_node15"><g id="node_expander14" style="cursor: pointer;" display="none"><path id="kity_path_211" fill="white" stroke="gray" d="M720.5000262409449,448.5000114887953A6,6,0,1,1,708.5000262409449,448.5000114887953A6,6,0,1,1,720.5000262409449,448.5000114887953"></path><path id="kity_path_212" fill="none" stroke="gray"></path></g><path id="node_outline15" fill="none" stroke="none" d="M725.5000274628401,433.5000114887953h94a5,5,0,0,1,5,5v20a5,5,0,0,1,-5,5h-94a5,5,0,0,1,-5,-5v-20a5,5,0,0,1,5,-5z" stroke-width="3"></path><g id="node_text15" fill="black"><text id="kity_text_208" text-rendering="inherit" font-size="12" dy=".8em" y="440.7000115623077" x="755.5000274628401">MongoDB</text></g><g id="node_progress9"><path id="kity_path_214" fill="#FFED83" stroke="none" d="M750.0000270307064,449.00001150369644A9,9,0,1,1,732.0000270307064,449.00001150369644A9,9,0,1,1,750.0000270307064,449.00001150369644"></path><path id="kity_path_215" fill="#43BC00" stroke="none" d="M741.0000270307064,449.00001150369644"></path><path id="kity_path_216" fill="#8E8E8E" stroke="none" d="M741.0000267326832,442.0000112056732c4.418,0,8,3.582,8,8h1c0,-5.523,-3.477,-10,-9,-10S732.0000267326832,444.4770112056732,732.0000267326832,450.0000112056732h1C733.0000267326832,445.5820112056732,736.5820267326832,442.0000112056732,741.0000267326832,442.0000112056732z"></path><path id="kity_path_218" fill="#EEE" stroke="none" d="M756.8120270307064,456.89601150369646l-6.75,6.75l-4.5,-4.5L747.2500270307064,457.45901150369644l2.812,2.803l5.062,-5.053L756.8120270307064,456.89601150369646z" display="none"></path><path id="kity_path_217" fill="url(#kity_linearGradient_17)" stroke="none" d="M741.0000267326832,439.0000112056732C735.4770267326832,439.0000112056732,731.0000267326832,443.4770112056732,731.0000267326832,449.0000112056732c0,5.523,4.477,10,10,10s10,-4.477,10,-10C751.0000267326832,443.4770112056732,746.5230267326832,439.0000112056732,741.0000267326832,439.0000112056732zM741.0000267326832,457.0000112056732c-4.418,0,-8,-3.582,-8,-8s3.582,-8,8,-8s8,3.582,8,8S745.4180267326832,457.0000112056732,741.0000267326832,457.0000112056732z"></path></g></g><g id="minder_node16" opacity="1"><g id="node_expander15" style="cursor: pointer;" display="none"><path id="kity_path_231" fill="white" stroke="gray" d="M296.50001360476017,355.5000087171793A6,6,0,1,1,284.50001360476017,355.5000087171793A6,6,0,1,1,296.50001360476017,355.5000087171793"></path><path id="kity_path_232" fill="none" stroke="gray"></path></g><path id="node_outline16" fill="rgb(238, 246, 238)" stroke="rgb(115, 191, 118)" d="M164.5000111013651,339.5000087171793h116a3,3,0,0,1,3,3v26a3,3,0,0,1,-3,3h-116a3,3,0,0,1,-3,-3v-26a3,3,0,0,1,3,-3z" stroke-width="1"></path><g id="node_text16" fill="black"><text id="kity_text_228" text-rendering="inherit" font-size="14" dy=".8em" y="346.40000874996184" x="206.5000111013651">模拟登录</text></g><g id="node_progress11"><path id="kity_path_234" fill="#FFED83" stroke="none" d="M201.00001066923141,356.00000873208046A9,9,0,1,1,183.00001066923141,356.00000873208046A9,9,0,1,1,201.00001066923141,356.00000873208046"></path><path id="kity_path_235" fill="#43BC00" stroke="none" d="M192.00001066923141,356.00000873208046"></path><path id="kity_path_236" fill="#8E8E8E" stroke="none" d="M192.0000103712082,349.00000843405724c4.418,0,8,3.582,8,8h1c0,-5.523,-3.477,-10,-9,-10S183.0000103712082,351.4770084340572,183.0000103712082,357.00000843405724h1C184.0000103712082,352.58200843405723,187.58201037120818,349.00000843405724,192.0000103712082,349.00000843405724z"></path><path id="kity_path_238" fill="#EEE" stroke="none" d="M207.81201066923143,363.8960087320805l-6.75,6.75l-4.5,-4.5L198.25001066923141,364.45900873208046l2.812,2.803l5.062,-5.053L207.81201066923143,363.8960087320805z" display="none"></path><path id="kity_path_237" fill="url(#kity_linearGradient_17)" stroke="none" d="M192.0000103712082,346.00000843405724C186.4770103712082,346.00000843405724,182.0000103712082,350.4770084340572,182.0000103712082,356.00000843405724c0,5.523,4.477,10,10,10s10,-4.477,10,-10C202.0000103712082,350.4770084340572,197.5230103712082,346.00000843405724,192.0000103712082,346.00000843405724zM192.0000103712082,364.00000843405724c-4.418,0,-8,-3.582,-8,-8s3.582,-8,8,-8s8,3.582,8,8S196.4180103712082,364.00000843405724,192.0000103712082,364.00000843405724z"></path></g></g><g id="minder_node17"><g id="node_expander16" style="cursor: pointer;" display="none"><path id="kity_path_251" fill="white" stroke="gray" d="M857.500030323863,296.5000069588423A6,6,0,1,1,845.500030323863,296.5000069588423A6,6,0,1,1,857.500030323863,296.5000069588423"></path><path id="kity_path_252" fill="none" stroke="gray"></path></g><path id="node_outline17" fill="none" stroke="none" d="M862.5000315457582,281.5000069588423h78a5,5,0,0,1,5,5v20a5,5,0,0,1,-5,5h-78a5,5,0,0,1,-5,-5v-20a5,5,0,0,1,5,-5z" stroke-width="3"></path><g id="node_text17" fill="black"><text id="kity_text_248" text-rendering="inherit" font-size="12" dy=".8em" y="288.7000070323547" x="892.5000315457582">cookies</text></g><g id="node_progress13"><path id="kity_path_254" fill="#FFED83" stroke="none" d="M887.0000311136246,297.00000697374344A9,9,0,1,1,869.0000311136246,297.00000697374344A9,9,0,1,1,887.0000311136246,297.00000697374344"></path><path id="kity_path_255" fill="#43BC00" stroke="none" d="M878.0000311136246,297.00000697374344"></path><path id="kity_path_256" fill="#8E8E8E" stroke="none" d="M878.0000308156013,290.0000066757202c4.418,0,8,3.582,8,8h1c0,-5.523,-3.477,-10,-9,-10S869.0000308156013,292.4770066757202,869.0000308156013,298.0000066757202h1C870.0000308156013,293.5820066757202,873.5820308156013,290.0000066757202,878.0000308156013,290.0000066757202z"></path><path id="kity_path_258" fill="#EEE" stroke="none" d="M893.8120311136246,304.89600697374345l-6.75,6.75l-4.5,-4.5L884.2500311136246,305.45900697374344l2.812,2.803l5.062,-5.053L893.8120311136246,304.89600697374345z" display="none"></path><path id="kity_path_257" fill="url(#kity_linearGradient_17)" stroke="none" d="M878.0000308156013,287.0000066757202C872.4770308156013,287.0000066757202,868.0000308156013,291.4770066757202,868.0000308156013,297.0000066757202c0,5.523,4.477,10,10,10s10,-4.477,10,-10C888.0000308156013,291.4770066757202,883.5230308156014,287.0000066757202,878.0000308156013,287.0000066757202zM878.0000308156013,305.0000066757202c-4.418,0,-8,-3.582,-8,-8s3.582,-8,8,-8s8,3.582,8,8S882.4180308156014,305.0000066757202,878.0000308156013,305.0000066757202z"></path></g></g><g id="minder_node14"><g id="node_expander13" style="cursor: pointer;" display="none"><path id="kity_path_192" fill="white" stroke="gray" d="M122.50000841915607,262.5000059455633A6,6,0,1,1,110.50000841915607,262.5000059455633A6,6,0,1,1,122.50000841915607,262.5000059455633"></path><path id="kity_path_193" fill="none" stroke="gray"></path></g><path id="node_outline14" fill="none" stroke="none" d="M58.50000683963299,251.50000594556332h47a5,5,0,0,1,5,5v12a5,5,0,0,1,-5,5h-47a5,5,0,0,1,-5,-5v-12a5,5,0,0,1,5,-5z" stroke-width="3"></path><g id="node_text14" fill="black"><text id="kity_text_189" text-rendering="inherit" font-size="12" dy=".8em" y="254.70000601907572" x="63.50000683963299">Splash</text></g></g><g id="minder_node18" opacity="1"><g id="node_expander17" style="cursor: pointer;" display="none"><path id="kity_path_266" fill="white" stroke="gray" d="M998.5000345259905,168.500003144145A6,6,0,1,1,986.5000345259905,168.500003144145A6,6,0,1,1,998.5000345259905,168.500003144145"></path><path id="kity_path_267" fill="none" stroke="gray"></path></g><path id="node_outline18" fill="none" stroke="none" d="M1003.5000350028276,157.500003144145h84a5,5,0,0,1,5,5v12a5,5,0,0,1,-5,5h-84a5,5,0,0,1,-5,-5v-12a5,5,0,0,1,5,-5z" stroke-width="3"></path><g id="node_text18" fill="black"><text id="kity_text_263" text-rendering="inherit" font-size="12" dy=".8em" y="160.7000032176574" x="1008.5000350028276">获取免费代理</text></g></g><g id="minder_node19"><g id="node_expander18" style="cursor: pointer;" display="none"><path id="kity_path_274" fill="white" stroke="gray" d="M1000.5000345855951,240.50000528991222A6,6,0,1,1,988.5000345855951,240.50000528991222A6,6,0,1,1,1000.5000345855951,240.50000528991222"></path><path id="kity_path_275" fill="none" stroke="gray"></path></g><path id="node_outline19" fill="none" stroke="none" d="M1005.5000350624323,229.50000528991222h59a5,5,0,0,1,5,5v12a5,5,0,0,1,-5,5h-59a5,5,0,0,1,-5,-5v-12a5,5,0,0,1,5,-5z" stroke-width="3"></path><g id="node_text19" fill="black"><text id="kity_text_271" text-rendering="inherit" font-size="12" dy=".8em" y="232.70000536342462" x="1010.5000350624323">随机代理</text></g></g></g></g></svg>